<svg xmlns="http://www.w3.org/2000/svg" viewBox="0 0 24 24" width="24" height="24" role="img" aria-label="Conta Azul">
  <rect x="1" y="1" width="22" height="22" rx="5.5" fill="#2687E9"/>
  <circle cx="12" cy="12" r="8.35" fill="#fff"/>
  <!-- Forma em ŦCŧ por dois segmentos curvos (estilo Conta Azul) -->
  <path fill="#2687E9" d="M9.2 8.4c1.5-.5 3.2.1 4.1 1.3l-1.15.95c-.55-.7-1.45-1-2.35-.75-1.25.35-2 1.65-1.65 2.9s1.65 2 2.9 1.65c.9-.25 1.55-.95 1.75-1.8h1.6c-.25 1.55-1.45 2.8-3 3.15-2.15.5-4.3-.85-4.8-3-.5-2.15.85-4.3 3-4.8z"/>
  <path fill="#2687E9" d="M14.8 15.6c-1.5.5-3.2-.1-4.1-1.3l1.15-.95c.55.7 1.45 1 2.35.75 1.25-.35 2-1.65 1.65-2.9s-1.65-2-2.9-1.65c-.9.25-1.55.95-1.75 1.8h-1.6c.25-1.55 1.45-2.8 3-3.15 2.15-.5 4.3.85 4.8 3 .5 2.15-.85 4.3-3 4.8z"/>
</svg>
